<svg xmlns="http://www.w3.org/2000/svg" data-name="Layer 1" viewBox="0 0 125 125"><polygon fill="#d5d6db" points="89.266 97.832 47.197 97.832 47.197 39.745 89.266 42.745 89.266 97.832"/><polygon fill="#ebf0f3" points="77.803 104.103 35.734 99.999 35.734 45.611 77.803 49.016 77.803 104.103"/><polygon fill="#27a2db" points="35.734 88.408 35.734 99.999 77.803 104.103 77.803 72.067 35.734 88.408"/><polygon fill="#e6e9ef" points="77.803 104.103 89.266 97.832 89.266 42.745 77.803 49.016 77.803 104.103"/><polygon fill="#e6e9ef" points="35.734 45.611 45.172 30.221 82.861 33.221 77.803 49.016 35.734 45.611"/><polygon fill="#d5d6db" points="82.861 33.221 89.266 42.745 77.803 49.016 82.861 33.221"/><polygon fill="#ebf0f3" points="45.172 30.221 45.172 29.521 45.172 20.897 83.397 23.071 82.861 33.221 45.172 30.221"/><polygon fill="#e56353" points="77.803 72.067 89.266 85.552 89.266 97.832 77.803 104.103 77.803 72.067"/><path fill="#4d5c7d" d="M41.91116 67.1333V58.11582l1.74484.19581 2.07348 6.6175q.28683.9241.41828 1.38173.1494-.47532.46609-1.3932l2.09739-6.03873 1.55959.175v9.01748l-1.11741-.1254V60.39866l-2.54555 7.26171-1.0457-.11735-2.53359-7.96086V67.2587zM52.33834 68.30344V59.286l1.15924.13009v9.01748zM55.49338 68.65751V59.64l1.15924.13009v7.95334l4.31428.48415v1.06414zM62.29943 69.42128V60.40381l1.15923.13009v4.47183l4.35014-3.98366 1.57154.17636-3.6749 3.24134L69.54168 70.234 68.012 70.06235l-3.11919-4.91414-1.43411 1.27842v3.12474z"/></svg>