<svg xmlns="http://www.w3.org/2000/svg" width="264.491" height="194.86" viewBox="0 0 264.491 194.86">
  <g id="グループ_216" data-name="グループ 216" transform="translate(-86.509 -1081.512)">
    <g id="コンポーネント_82_2" data-name="コンポーネント 82 – 2" transform="translate(151 1122)">
      <path id="パス_54" data-name="パス 54" d="M17.584,108.279c-40.417,61.655,23.335,88.1,79.315,89.64,57.673,1.585,134.567-22.766,89.573-90.627l.043.017c9.253-3.7,13.134-12.686,11.478-22.2-5.008-25.683-40.029-34.564-50.9-8.253a.929.929,0,0,0,.214.413c-29.947-12.091-67.1-11.263-95.877,2.419-3.209-16.832-25.1-24.055-38.458-13.824-16.742,10.762-19.352,39.863,4.54,42.455Z" transform="translate(0 -43.618)" fill="#c69c6d"/>
      <path id="パス_55" data-name="パス 55" d="M170.518,136.65a80.943,80.943,0,0,1,55.8,22.105c8.628,8.068,14.59,17.78,16.748,29.544a34.97,34.97,0,0,1,.148,13.978c-.911,4.135-3.3,5.467-7.358,4.149a25.449,25.449,0,0,1-3.141-1.332,47.238,47.238,0,0,1-6-3.557c-5.45-3.7-10.767-7.609-16.348-11.1-10.23-6.4-20.779-12.16-32.9-14.294-10.621-1.867-20.785-.211-30.7,3.736-10.121,4.03-19.146,9.966-28.109,16.058a155.327,155.327,0,0,1-13.722,8.9,17.77,17.77,0,0,1-5.159,1.992,4.359,4.359,0,0,1-5.336-2.9,17.023,17.023,0,0,1-1.082-6.261c-.285-14.872,5.425-27.3,15.732-37.754,10.067-10.2,22.424-16.405,36.177-20.048C152.716,137.888,160.291,136.94,170.518,136.65Z" transform="translate(-66.701 -97.763)" fill="#998675"/>
      <path id="パス_56" data-name="パス 56" d="M323.906,259.82a20.84,20.84,0,0,1,8.779,1.753c6.65,3.361,5.616,7.945-.991,11.337-5.807,2.985-11.009,2.6-16.274-.854-5.539-3.628-7-8.045-.146-10.927C317.876,260.039,320.677,259.871,323.906,259.82Z" transform="translate(-221.979 -185.882)" fill="#1a1a1a"/>
      <path id="パス_57" data-name="パス 57" d="M196.745,227.625a14.249,14.249,0,0,1-6.7.322c-5.525-1.2-7.041-5.95-3.232-10.1,3.349-3.645,9.707-5.313,14.276-3.739,4.811,1.656,5.425,6.545,1.325,10.35A14.931,14.931,0,0,1,196.745,227.625Z" transform="translate(-131.971 -152.756)" fill="#1a1a1a"/>
      <path id="パス_58" data-name="パス 58" d="M451.931,226.963a13.942,13.942,0,0,1-5.425-3.842c-3.583-4.32-1.841-9,3.689-9.94,4.854-.828,10.867,1.75,13.473,5.785,2.741,4.246.214,8.492-5.336,8.975A15.528,15.528,0,0,1,451.931,226.963Z" transform="translate(-317.686 -152.405)" fill="#1a1a1a"/>
      <path id="パス_59" data-name="パス 59" d="M265.347,40.138c-21.228-3.415-37.231-5.222-41.97-4.781a.763.763,0,0,1-.754-1.1c2.9-5.782,16.037-29.786,34.55-33.6C271.928-2.38,286.112,5.9,294.289,9.151c1.465.583,4.725.729,6.47.763a.569.569,0,0,1,.454.933c-1.37,1.8-4.346,5.726-5.156,6.844C290.909,24.8,280.073,42.505,265.347,40.138Z" transform="translate(-159.003 0.002)" fill="#8cc63f"/>
    </g>
    <g id="グループ_206" data-name="グループ 206" transform="translate(24.542 49.542)">
      <path id="パス_283" data-name="パス 283" d="M75.037,2405.009l2.842,10.573,17.914-1.747,17.833,29.331L81.2,2437.68v-34.6h41.483v26.79H72.55l21.733-30.779H111.1l17.68,8.007,4.774,17.821-47.341-9.335,11.067,27.584,11.411-33.836" transform="translate(1.023 -1348.464)" fill="none" stroke="#707070" stroke-linecap="round" stroke-width="3"/>
      <path id="パス_284" data-name="パス 284" d="M2.487,5.92,5.329,16.492l17.914-1.747L41.076,44.076,8.645,38.591V3.989H50.128v26.79H0L21.733,0H38.552l17.68,8.007,4.774,17.821L13.665,16.492,24.732,44.076,36.143,10.24" transform="translate(88.678 1038.326) rotate(30)" fill="none" stroke="#707070" stroke-linecap="round" stroke-width="3"/>
      <path id="パス_285" data-name="パス 285" d="M2.487,5.92,5.329,16.492l17.914-1.747L41.076,44.076,8.645,38.591V3.989H50.128v26.79H0L21.733,0H38.552l17.68,8.007,4.774,17.821L13.665,16.492,24.732,44.076,36.143,10.24" transform="translate(107.91 1035.228) rotate(60)" fill="none" stroke="#707070" stroke-linecap="round" stroke-width="3"/>
    </g>
  </g>
</svg>
