<svg id="コンポーネント_85_3" data-name="コンポーネント 85 – 3" xmlns="http://www.w3.org/2000/svg" width="77.478" height="60" viewBox="0 0 77.478 60">
  <g id="tanu">
    <path id="パス_54" data-name="パス 54" d="M6.812,79.356C-8.845,103.32,15.852,113.6,37.538,114.2c22.342.616,52.13-8.848,34.7-35.224l.017.007c3.585-1.438,5.088-4.931,4.446-8.627-1.94-9.982-15.507-13.434-19.716-3.208a.362.362,0,0,0,.083.16c-11.6-4.7-25.992-4.378-37.142.94C18.682,61.7,10.2,58.9,5.027,62.872c-6.486,4.183-7.5,15.493,1.759,16.5Z" transform="translate(0 -54.225)" fill="#c69c6d"/>
    <path id="パス_55" data-name="パス 55" d="M123.247,136.65a31.3,31.3,0,0,1,21.615,8.592,20.613,20.613,0,0,1,6.488,11.483,13.636,13.636,0,0,1,.058,5.433c-.353,1.607-1.28,2.125-2.85,1.613a9.844,9.844,0,0,1-1.217-.518,18.289,18.289,0,0,1-2.323-1.383c-2.111-1.438-4.171-2.958-6.333-4.314-3.963-2.487-8.05-4.726-12.746-5.556a21.441,21.441,0,0,0-11.891,1.452,57.308,57.308,0,0,0-10.889,6.241,60.152,60.152,0,0,1-5.316,3.459,6.87,6.87,0,0,1-2,.774,1.688,1.688,0,0,1-2.067-1.126,6.636,6.636,0,0,1-.419-2.433,19.75,19.75,0,0,1,6.094-14.674,29.88,29.88,0,0,1,14.015-7.792A40.949,40.949,0,0,1,123.247,136.65Z" transform="translate(-83.029 -121.536)" fill="#998675"/>
    <path id="パス_56" data-name="パス 56" d="M315.805,259.82a8.05,8.05,0,0,1,3.4.681c2.576,1.306,2.176,3.088-.384,4.406a5.766,5.766,0,0,1-6.3-.332c-2.146-1.41-2.711-3.127-.056-4.247A8.818,8.818,0,0,1,315.805,259.82Z" transform="translate(-276.319 -231.083)" fill="#1a1a1a"/>
    <path id="パス_57" data-name="パス 57" d="M189.371,219a5.5,5.5,0,0,1-2.595.125c-2.14-.465-2.727-2.313-1.252-3.924a5.625,5.625,0,0,1,5.53-1.453c1.864.644,2.1,2.544.513,4.023A5.779,5.779,0,0,1,189.371,219Z" transform="translate(-164.278 -189.902)" fill="#1a1a1a"/>
    <path id="パス_58" data-name="パス 58" d="M447.461,218.443a5.4,5.4,0,0,1-2.1-1.493c-1.388-1.679-.713-3.5,1.429-3.863a5.565,5.565,0,0,1,5.219,2.249c1.062,1.65.083,3.3-2.067,3.488A6,6,0,0,1,447.461,218.443Z" transform="translate(-395.456 -189.465)" fill="#1a1a1a"/>
    <path id="パス_59" data-name="パス 59" d="M239.123,15.6c-8.223-1.327-14.423-2.03-16.259-1.858a.3.3,0,0,1-.292-.429C223.7,11.065,228.785,1.735,235.957.254c5.716-1.18,11.211,2.037,14.379,3.3a9.484,9.484,0,0,0,2.506.3.221.221,0,0,1,.176.363c-.531.7-1.683,2.225-2,2.66C249.026,9.64,244.828,16.52,239.123,15.6Z" transform="translate(-197.927 0.002)" fill="#8cc63f"/>
    <line id="線_38" data-name="線 38" x1="10.5" transform="translate(33.5 44)" fill="none" stroke="#1a1a1a" stroke-linecap="round" stroke-width="2"/>
  </g>
</svg>
