<svg id="グループ_229" data-name="グループ 229" xmlns="http://www.w3.org/2000/svg" xmlns:xlink="http://www.w3.org/1999/xlink" width="52.493" height="61.108" viewBox="0 0 52.493 61.108">
  <defs>
    <clipPath id="clip-path">
      <rect id="長方形_388" data-name="長方形 388" width="22.623" height="22.623" fill="#12a249"/>
    </clipPath>
    <clipPath id="clip-path-2">
      <path id="path18" d="M0-130H22.249v22.249H0Z" transform="translate(0 130)"/>
    </clipPath>
  </defs>
  <g id="Icon_ionic-ios-body" data-name="Icon ionic-ios-body" transform="translate(0 0)">
    <path id="パス_324" data-name="パス 324" d="M65.936,14.687a6.562,6.562,0,1,1-6.562-6.562,6.562,6.562,0,0,1,6.562,6.562Z" transform="translate(-33.128 -8.125)" fill="#707070"/>
    <path id="パス_325" data-name="パス 325" d="M65.462,36.563H19.531a3.272,3.272,0,1,0,0,6.543H33a2.893,2.893,0,0,1,2.351,1.936c.642,1.649.328,4.58-.068,7.047l-.519,2.917a.05.05,0,0,1-.014.041h0L30.59,78.52a3.269,3.269,0,1,0,6.439,1.131L39.9,63.307v.027s.848-4.43,2.529-4.43h.15c1.709,0,2.529,4.43,2.529,4.43v-.014l2.871,16.344a3.27,3.27,0,0,0,6.439-1.145L50.261,55.047h0a.05.05,0,0,0-.014-.041l-.519-2.917c-.4-2.467-.711-5.4-.068-7.047a2.893,2.893,0,0,1,2.351-1.936H65.462a3.272,3.272,0,1,0,0-6.543Z" transform="translate(-16.25 -21.252)" fill="#707070"/>
  </g>
  <g id="マスクグループ_7" data-name="マスクグループ 7" transform="translate(15.204 19.242)" clip-path="url(#clip-path)">
    <g id="g10" transform="translate(0.187 0.187)">
      <g id="g12">
        <g id="g14" clip-path="url(#clip-path-2)">
          <g id="g20" transform="translate(0.653 8.147)">
            <path id="path22" d="M-69.908-19.285a3.982,3.982,0,0,0-3.982-3.982A3.974,3.974,0,0,0-77.125-21.6a3.976,3.976,0,0,0-3.235-1.666,3.982,3.982,0,0,0-3.982,3.982,3.972,3.972,0,0,0,.107.9c.553,3.435,4.373,7.061,7.11,8.055,2.737-.995,6.558-4.62,7.109-8.054a3.894,3.894,0,0,0,.109-.906" transform="translate(84.343 23.267)" fill="#ff3131"/>
          </g>
          <g id="g24" transform="translate(11.597 1.161)">
            <path id="path26" d="M-48.423-13.358a2.758,2.758,0,0,0-2.758-2.758,2.753,2.753,0,0,0-2.241,1.155,2.754,2.754,0,0,0-2.241-1.155,2.758,2.758,0,0,0-2.758,2.758,2.755,2.755,0,0,0,.074.626c.383,2.38,3.029,4.891,4.925,5.58,1.9-.689,4.542-3.2,4.925-5.579a2.764,2.764,0,0,0,.074-.627" transform="translate(58.421 16.117)" fill="#ff3131"/>
          </g>
        </g>
      </g>
    </g>
  </g>
</svg>
