<svg xmlns="http://www.w3.org/2000/svg" enable-background="new 0 0 66 66" viewBox="0 0 66 66"><path d="M65,8.32h-8.25v2H63v8.28H3v-8.28h6.26v-2H1V20.6h0v42.44h64V18.59h0V8.32z M3,61.04V20.6h60v40.44H3z"/><rect width="22.19" height="2" x="21.91" y="8.32"/><path d="M11.23 15.68h8.7V2.96h-8.7V15.68zM13.23 4.96h4.7v8.72h-4.7V4.96zM46.07 15.68h8.7V2.96h-8.7V15.68zM48.07 4.96h4.7v8.72h-4.7V4.96zM17.66 34.44h8.2v-8.2h-8.2V34.44zM19.66 28.24h4.2v4.2h-4.2V28.24zM28.9 34.44h8.2v-8.2h-8.2V34.44zM30.9 28.24h4.2v4.2h-4.2V28.24zM40.14 34.44h8.2v-8.2h-8.2V34.44zM42.14 28.24h4.2v4.2h-4.2V28.24zM51.39 34.44h8.2v-8.2h-8.2V34.44zM53.39 28.24h4.2v4.2h-4.2V28.24zM6.42 44.92h8.2v-8.2h-8.2V44.92zM8.42 38.72h4.2v4.2h-4.2V38.72zM17.66 44.92h8.2v-8.2h-8.2V44.92zM19.66 38.72h4.2v4.2h-4.2V38.72zM28.9 44.92h8.2v-8.2h-8.2V44.92zM30.9 38.72h4.2v4.2h-4.2V38.72zM40.14 44.92h8.2v-8.2h-8.2V44.92zM42.14 38.72h4.2v4.2h-4.2V38.72zM51.39 44.92h8.2v-8.2h-8.2V44.92zM53.39 38.72h4.2v4.2h-4.2V38.72zM6.42 55.4h8.2v-8.2h-8.2V55.4zM8.42 49.2h4.2v4.2h-4.2V49.2zM17.66 55.4h8.2v-8.2h-8.2V55.4zM19.66 49.2h4.2v4.2h-4.2V49.2zM28.9 55.4h8.2v-8.2h-8.2V55.4zM30.9 49.2h4.2v4.2h-4.2V49.2zM40.14 55.4h8.2v-8.2h-8.2V55.4zM42.14 49.2h4.2v4.2h-4.2V49.2z"/></svg>