<svg xmlns="http://www.w3.org/2000/svg" data-name="Layer 1" viewBox="0 0 32 32"><path d="M28.624,3.031,20.674.082A.5.5,0,0,0,20,.55V11H12.025V10a.472.472,0,0,0-.01-.051A3.987,3.987,0,0,0,10.025,2.5c-.068,0-.131.017-.2.02a.475.475,0,0,0-.052-.01.484.484,0,0,0-.153.031A3.972,3.972,0,0,0,8.036,9.949a.472.472,0,0,0-.01.051v1a4.5,4.5,0,0,0-4.5,4.5v6a2.5,2.5,0,0,0,2.5,2.5h.5v6.5a1.5,1.5,0,0,0,1.5,1.5H12.12a1.5,1.5,0,0,0,1.5-1.405l-.089-9.061.872-6.1a.5.5,0,0,1,.5-.429H20V31.5a.5.5,0,0,0,1,0V14.722a1.982,1.982,0,0,0,0-3.443V6.8l7.624-2.829a.5.5,0,0,0,0-.937Zm-18.6.469a3,3,0,0,1,2.943,2.438l-1.6-.645A2.513,2.513,0,0,0,9.75,5.206l-2.671.759A3,3,0,0,1,10.025,3.5ZM7.075,6.988a.481.481,0,0,0,.087-.007l2.861-.813a1.505,1.505,0,0,1,.971.052l1.844.744a.5.5,0,0,0,.138.027,2.989,2.989,0,0,1-5.9,0Zm3.951,3.37V12a1,1,0,0,1-2,0V10.358a3.954,3.954,0,0,0,1,.142A3.954,3.954,0,0,0,11.025,10.358ZM6.525,21.5V23h-.5a1.5,1.5,0,0,1-1.5-1.5V21h2ZM12.12,31H10.525V24.5a.5.5,0,0,0-1,0V31h-1.5a.5.5,0,0,1-.5-.5V22h5l.088,8.55A.5.5,0,0,1,12.12,31Zm6.405-17H14.893a1.507,1.507,0,0,0-1.485,1.288L12.592,21H7.525V18.5a.5.5,0,0,0-1,0V20h-2V15.5a3.5,3.5,0,0,1,3.5-3.5,2,2,0,0,0,4,0h6.5ZM20,14h-.475V12H20a1,1,0,0,1,0,2Zm1-8.269V1.269L27.013,3.5Z"/></svg>