<svg xmlns="http://www.w3.org/2000/svg" width="22.501" height="20.001" viewBox="0 0 22.501 20.001">
  <path id="Icon_awesome-hand-holding-heart" data-name="Icon awesome-hand-holding-heart" d="M10.754,9.785a.68.68,0,0,0,1,0L16,5.324A3.238,3.238,0,0,0,15.785.684a2.969,2.969,0,0,0-4.1.3l-.437.457L10.816.988a2.966,2.966,0,0,0-4.1-.3A3.241,3.241,0,0,0,6.5,5.324Zm11.328,3.031a1.293,1.293,0,0,0-1.664,0L16.809,15.7a2.487,2.487,0,0,1-1.562.547H10.625a.625.625,0,0,1,0-1.25h3.059a1.3,1.3,0,0,0,1.3-1.039A1.251,1.251,0,0,0,13.75,12.5H7.5a4.6,4.6,0,0,0-2.895,1.027L2.789,15H.625A.627.627,0,0,0,0,15.625v3.75A.627.627,0,0,0,.625,20H14.563a2.5,2.5,0,0,0,1.563-.547l5.906-4.727A1.249,1.249,0,0,0,22.082,12.816Z" transform="translate(0 0.001)" fill="#fff"/>
</svg>
