<svg xmlns="http://www.w3.org/2000/svg" width="22.502" height="17.498" viewBox="0 0 22.502 17.498">
  <path id="Icon_awesome-home" data-name="Icon awesome-home" d="M10.952,5.791l-7.2,5.932v6.4a.625.625,0,0,0,.625.625l4.377-.011a.625.625,0,0,0,.622-.625V14.375A.625.625,0,0,1,10,13.75h2.5a.625.625,0,0,1,.625.625v3.736a.625.625,0,0,0,.625.627l4.376.012a.625.625,0,0,0,.625-.625V11.719l-7.2-5.927a.476.476,0,0,0-.6,0ZM22.328,9.823,19.063,7.131V1.721a.469.469,0,0,0-.469-.469H16.406a.469.469,0,0,0-.469.469V4.557L12.44,1.68a1.875,1.875,0,0,0-2.383,0L.17,9.823a.469.469,0,0,0-.062.66l1,1.211a.469.469,0,0,0,.661.064L10.952,4.19a.476.476,0,0,1,.6,0l9.189,7.568a.469.469,0,0,0,.66-.062l1-1.211a.469.469,0,0,0-.066-.661Z" transform="translate(0.001 -1.252)" fill="#fff"/>
</svg>
