<svg xmlns="http://www.w3.org/2000/svg" xmlns:xlink="http://www.w3.org/1999/xlink" width="403.723" height="398.77" viewBox="0 0 403.723 398.77">
  <defs>
    <clipPath id="clip-path">
      <path id="path18" d="M0-47.5H115.511V68.011H0Z" transform="translate(0 47.5)"/>
    </clipPath>
  </defs>
  <g id="グループ_320" data-name="グループ 320" transform="translate(-86.509 -1070.296)">
    <g id="グループ_216" data-name="グループ 216" transform="translate(0 53)">
      <g id="コンポーネント_82_2" data-name="コンポーネント 82 – 2" transform="translate(151 1122)">
        <path id="パス_54" data-name="パス 54" d="M17.584,108.279c-40.417,61.655,23.335,88.1,79.315,89.64,57.673,1.585,134.567-22.766,89.573-90.627l.043.017c9.253-3.7,13.134-12.686,11.478-22.2-5.008-25.683-40.029-34.564-50.9-8.253a.929.929,0,0,0,.214.413c-29.947-12.091-67.1-11.263-95.877,2.419-3.209-16.832-25.1-24.055-38.458-13.824-16.742,10.762-19.352,39.863,4.54,42.455Z" transform="translate(0 -43.618)" fill="#c69c6d"/>
        <path id="パス_55" data-name="パス 55" d="M170.518,136.65a80.943,80.943,0,0,1,55.8,22.105c8.628,8.068,14.59,17.78,16.748,29.544a34.97,34.97,0,0,1,.148,13.978c-.911,4.135-3.3,5.467-7.358,4.149a25.449,25.449,0,0,1-3.141-1.332,47.238,47.238,0,0,1-6-3.557c-5.45-3.7-10.767-7.609-16.348-11.1-10.23-6.4-20.779-12.16-32.9-14.294-10.621-1.867-20.785-.211-30.7,3.736-10.121,4.03-19.146,9.966-28.109,16.058a155.327,155.327,0,0,1-13.722,8.9,17.77,17.77,0,0,1-5.159,1.992,4.359,4.359,0,0,1-5.336-2.9,17.023,17.023,0,0,1-1.082-6.261c-.285-14.872,5.425-27.3,15.732-37.754,10.067-10.2,22.424-16.405,36.177-20.048C152.716,137.888,160.291,136.94,170.518,136.65Z" transform="translate(-66.701 -97.763)" fill="#998675"/>
        <path id="パス_56" data-name="パス 56" d="M323.906,259.82a20.84,20.84,0,0,1,8.779,1.753c6.65,3.361,5.616,7.945-.991,11.337-5.807,2.985-11.009,2.6-16.274-.854-5.539-3.628-7-8.045-.146-10.927C317.876,260.039,320.677,259.871,323.906,259.82Z" transform="translate(-221.979 -185.882)" fill="#1a1a1a"/>
        <path id="パス_57" data-name="パス 57" d="M196.745,227.625a14.249,14.249,0,0,1-6.7.322c-5.525-1.2-7.041-5.95-3.232-10.1,3.349-3.645,9.707-5.313,14.276-3.739,4.811,1.656,5.425,6.545,1.325,10.35A14.931,14.931,0,0,1,196.745,227.625Z" transform="translate(-131.971 -152.756)" fill="#1a1a1a"/>
        <path id="パス_58" data-name="パス 58" d="M451.931,226.963a13.942,13.942,0,0,1-5.425-3.842c-3.583-4.32-1.841-9,3.689-9.94,4.854-.828,10.867,1.75,13.473,5.785,2.741,4.246.214,8.492-5.336,8.975A15.528,15.528,0,0,1,451.931,226.963Z" transform="translate(-317.686 -152.405)" fill="#1a1a1a"/>
        <path id="パス_59" data-name="パス 59" d="M265.347,40.138c-21.228-3.415-37.231-5.222-41.97-4.781a.763.763,0,0,1-.754-1.1c2.9-5.782,16.037-29.786,34.55-33.6C271.928-2.38,286.112,5.9,294.289,9.151c1.465.583,4.725.729,6.47.763a.569.569,0,0,1,.454.933c-1.37,1.8-4.346,5.726-5.156,6.844C290.909,24.8,280.073,42.505,265.347,40.138Z" transform="translate(-159.003 0.002)" fill="#8cc63f"/>
      </g>
      <g id="グループ_206" data-name="グループ 206" transform="translate(24.542 49.542)">
        <path id="パス_283" data-name="パス 283" d="M75.037,2405.009l2.842,10.573,17.914-1.747,17.833,29.331L81.2,2437.68v-34.6h41.483v26.79H72.55l21.733-30.779H111.1l17.68,8.007,4.774,17.821-47.341-9.335,11.067,27.584,11.411-33.836" transform="translate(1.023 -1348.464)" fill="none" stroke="#707070" stroke-linecap="round" stroke-width="3"/>
        <path id="パス_284" data-name="パス 284" d="M2.487,5.92,5.329,16.492l17.914-1.747L41.076,44.076,8.645,38.591V3.989H50.128v26.79H0L21.733,0H38.552l17.68,8.007,4.774,17.821L13.665,16.492,24.732,44.076,36.143,10.24" transform="translate(88.678 1038.326) rotate(30)" fill="none" stroke="#707070" stroke-linecap="round" stroke-width="3"/>
        <path id="パス_285" data-name="パス 285" d="M2.487,5.92,5.329,16.492l17.914-1.747L41.076,44.076,8.645,38.591V3.989H50.128v26.79H0L21.733,0H38.552l17.68,8.007,4.774,17.821L13.665,16.492,24.732,44.076,36.143,10.24" transform="translate(107.91 1035.228) rotate(60)" fill="none" stroke="#707070" stroke-linecap="round" stroke-width="3"/>
      </g>
    </g>
    <g id="veg-food" transform="matrix(0.966, 0.259, -0.259, 0.966, 328.607, 1226.418)">
      <path id="パス_292" data-name="パス 292" d="M166.556,135.841c-.352-4.927,2.681-7.465.753-12.258-2.2-5.469-7.908-5.962-8.119-10-.191-3.67,4.477-4.193,6.2-8.957,2.72-7.536-6.289-13.632-3.6-18.043,2.264-3.712,12.087-4.094,17.575-.047,4.974,3.668,3.594,8.906,9.281,12.1,4.219,2.368,6.6.394,9.136,2.8,3.767,3.565-.66,8.66,2.434,15.038,2.969,6.119,8.655,4.748,12.255,11.266,3.555,6.437.916,13.593.508,14.662-3.16,8.268-11.879,12.786-19.443,13.388C179.717,156.888,167.218,145.127,166.556,135.841Z" transform="translate(-96.749 -36.381)" fill="#a2e379"/>
      <path id="パス_293" data-name="パス 293" d="M226.216,127.739c-3.6-6.518-9.286-5.146-12.255-11.266-3.094-6.378,1.333-11.473-2.434-15.038-2.541-2.4-4.917-.43-9.136-2.8-5.687-3.192-4.306-8.43-9.281-12.1a17.4,17.4,0,0,0-12.372-2.681,15.672,15.672,0,0,1,6.94,2.681c4.974,3.668,3.594,8.906,9.281,12.1,4.219,2.368,6.6.394,9.136,2.8,3.767,3.565-.66,8.66,2.434,15.038,2.969,6.119,8.655,4.748,12.255,11.266,3.555,6.437.916,13.593.508,14.662-3.033,7.936-11.188,12.415-18.527,13.294a23.162,23.162,0,0,0,4.517.094c7.564-.6,16.283-5.121,19.443-13.388C227.133,141.332,229.771,134.176,226.216,127.739Z" transform="translate(-110.496 -36.384)" fill="#3ea566"/>
      <path id="パス_294" data-name="パス 294" d="M43.145,98.026c-.427-6.738,3.573-10.231,1.074-16.773-2.851-7.465-10.344-8.1-10.592-13.622-.226-5.02,5.908-5.767,8.2-12.3,3.624-10.327-8.163-18.6-4.6-24.657,3-5.094,15.9-5.684,23.079-.186,6.507,4.983,4.657,12.158,12.1,16.485,5.523,3.21,8.658.493,11.978,3.764,4.922,4.85-.927,11.851,3.092,20.554,3.856,8.35,11.333,6.435,16.015,15.325,4.623,8.78,1.109,18.587.565,20.053C99.851,118,88.37,124.245,78.433,125.122,60.282,126.724,43.95,110.723,43.145,98.026Z" transform="translate(-16.661)" fill="#a2e379"/>
      <path id="パス_295" data-name="パス 295" d="M123.574,86.626c-4.682-8.891-12.159-6.975-16.015-15.325-4.019-8.7,1.83-15.7-3.092-20.554-3.32-3.271-6.454-.554-11.978-3.764-7.446-4.327-5.6-11.5-12.1-16.485C76.2,27.3,70.082,26.162,65.1,26.778a20.23,20.23,0,0,1,9.85,3.72c6.507,4.983,4.657,12.158,12.1,16.485,5.523,3.21,8.658.493,11.978,3.764,4.922,4.85-.927,11.851,3.092,20.554,3.856,8.35,11.333,6.435,16.015,15.325,4.623,8.78,1.109,18.587.565,20.053-4.183,11.266-15.557,17.5-25.455,18.431a29.121,29.121,0,0,0,5.262.018c9.937-.877,21.418-7.118,25.626-18.449C124.683,105.214,128.2,95.406,123.574,86.626Z" transform="translate(-36.741 -0.006)" fill="#3ea566"/>
      <path id="パス_296" data-name="パス 296" d="M110.99,182.318a1.66,1.66,0,0,1-1.4-1.111A261,261,0,0,1,98.2,152.452a297.681,297.681,0,0,1-8.841-33.261c-.294-1.428.208-2.958,1.121-3.418s1.891.326,2.185,1.754a290.243,290.243,0,0,0,8.621,32.431A254.468,254.468,0,0,0,112.39,178a4.04,4.04,0,0,1,.148,2.833c-.3.913-.894,1.488-1.548,1.489Z" transform="translate(-45.707 -56.788)" fill="#3ea566"/>
      <path id="パス_297" data-name="パス 297" d="M112.108,156.707a1.651,1.651,0,0,1-1.388-1.084,4,4,0,0,1-.282-2.386l2.11-11.446c.266-1.441,1.228-2.273,2.15-1.857s1.453,1.921,1.188,3.363l-2.11,11.446C113.562,155.905,112.882,156.706,112.108,156.707Zm5.937,18.725a1.628,1.628,0,0,1-1.365-1.035,3.961,3.961,0,0,1-.325-2.317l2.3-14.961c.224-1.459,1.162-2.356,2.095-2.006s1.507,1.818,1.282,3.276l-2.3,14.961C119.545,174.571,118.848,175.431,118.045,175.433Z" transform="translate(-61.918 -72.214)" fill="#3ea566"/>
      <path id="パス_298" data-name="パス 298" d="M95.793,187.043a1.2,1.2,0,0,1-.608-.173l-7.277-4.255c-.9-.525-1.354-2.09-1.018-3.5s1.336-2.118,2.235-1.593l7.277,4.255a3.16,3.16,0,0,1,1.1,3.028C97.353,186.1,96.633,187.043,95.793,187.043Zm5.272,15.983a1.2,1.2,0,0,1-.608-.173l-8.331-4.871c-.9-.525-1.354-2.09-1.018-3.5s1.336-2.118,2.235-1.593l8.331,4.871a3.161,3.161,0,0,1,1.1,3.028c-.149,1.293-.869,2.233-1.709,2.233Z" transform="translate(-43.79 -96.15)" fill="#3ea566"/>
      <path id="パス_299" data-name="パス 299" d="M355.231,133.665c-.614-6.723-5.1-9.559-3.642-16.409,1.668-7.815,8.975-9.595,8.371-15.089-.549-4.995-6.725-4.789-9.993-10.888-5.169-9.647,5.2-19.637.753-25.071-3.746-4.572-16.586-3.17-22.833,3.366-5.663,5.925-2.732,12.729-9.423,18.151-4.964,4.022-8.479,1.818-11.256,5.561-4.117,5.549,2.739,11.567.106,20.785-2.526,8.844-10.209,8.1-13.467,17.606-3.218,9.387,1.763,18.537,2.526,19.9,5.9,10.549,18.2,14.95,28.158,14.288C342.712,164.658,356.388,146.335,355.231,133.665Z" transform="translate(-181.956 -23.553)" fill="#a2e379"/>
      <path id="パス_300" data-name="パス 300" d="M399.207,117.258c1.668-7.815,8.975-9.595,8.371-15.089-.549-4.995-6.725-4.789-9.993-10.888-5.169-9.647,5.2-19.637.753-25.071-1.879-2.294-6.047-3.083-10.523-2.476A8.091,8.091,0,0,1,392.9,66.21c4.452,5.433-5.922,15.424-.753,25.071,3.268,6.1,9.444,5.893,9.993,10.888.6,5.495-6.7,7.274-8.371,15.089-1.462,6.849,3.027,9.686,3.642,16.409,1.142,12.5-12.162,30.51-29.986,32.144a30.771,30.771,0,0,0,4.718.058c18.182-1.209,31.857-19.532,30.7-32.2C402.234,126.943,397.744,124.107,399.207,117.258Z" transform="translate(-229.573 -23.554)" fill="#3ea566"/>
      <path id="パス_301" data-name="パス 301" d="M348.205,226.634c-.562,0-1.083-.489-1.378-1.289a4.359,4.359,0,0,1-.071-2.642,342.965,342.965,0,0,0,9.4-40.558q2.007-11.853,3.261-24.01c.152-1.478.991-2.47,1.874-2.215s1.474,1.66,1.322,3.139q-1.281,12.424-3.337,24.571a350.96,350.96,0,0,1-9.617,41.5C349.382,226.053,348.82,226.635,348.205,226.634Z" transform="translate(-210.092 -82.453)" fill="#3ea566"/>
      <path id="パス_302" data-name="パス 302" d="M381.279,197.752c-.658,0-1.25-.665-1.5-1.683L376.323,182a3.561,3.561,0,0,1,.882-3.546c.828-.571,1.776.091,2.117,1.478L382.778,194a4.339,4.339,0,0,1-.152,2.545c-.3.753-.806,1.205-1.346,1.206Z" transform="translate(-233.304 -96.721)" fill="#3ea566"/>
      <path id="パス_303" data-name="パス 303" d="M376.5,224.911c-.738,0-1.383-.832-1.57-2.028a3.645,3.645,0,0,1,.774-3.057l5.978-5.628c.781-.735,1.769-.271,2.208,1.037a3.841,3.841,0,0,1-.619,3.7l-5.978,5.628a1.158,1.158,0,0,1-.793.349Zm-3.809,18.7c-.738,0-1.383-.832-1.57-2.027a3.646,3.646,0,0,1,.774-3.057l6.376-6c.781-.735,1.769-.271,2.208,1.037a3.841,3.841,0,0,1-.619,3.7l-6.376,6a1.157,1.157,0,0,1-.793.349Z" transform="translate(-229.282 -119.427)" fill="#3ea566"/>
      <circle id="楕円形_1" data-name="楕円形 1" cx="16.106" cy="16.106" r="16.106" transform="translate(102.751 93.021)" fill="#f66"/>
      <path id="パス_304" data-name="パス 304" d="M305.4,209.981a16.074,16.074,0,0,0-5.433.942,16.109,16.109,0,0,1,0,30.329,16.107,16.107,0,1,0,5.433-31.271Z" transform="translate(-186.546 -116.96)" fill="#ff4e4e"/>
      <circle id="楕円形_2" data-name="楕円形 2" cx="16.106" cy="16.106" r="16.106" transform="translate(75.589 93.021)" fill="#f66"/>
      <path id="パス_305" data-name="パス 305" d="M230.4,209.981a16.073,16.073,0,0,0-5.433.942,16.109,16.109,0,0,1,0,30.329,16.107,16.107,0,1,0,5.433-31.271Z" transform="translate(-138.709 -116.96)" fill="#ff4e4e"/>
      <path id="パス_306" data-name="パス 306" d="M138.553,418.165h85.072V433.3a16.134,16.134,0,0,1-16.134,16.134h-52.8A16.134,16.134,0,0,1,138.553,433.3Z" transform="translate(-83.589 -249.746)" fill="#676e87"/>
      <path id="パス_307" data-name="パス 307" d="M300.033,418.165V433.3A16.134,16.134,0,0,1,283.9,449.433h16.3A16.134,16.134,0,0,0,316.331,433.3V418.165Z" transform="translate(-176.294 -249.746)" fill="#595f74"/>
      <path id="パス_308" data-name="パス 308" d="M148.657,258.67H187.5a65.71,65.71,0,0,1-65.716,65.713H73.213A65.713,65.713,0,0,1,7.5,258.671Z" transform="translate(0 -148.015)" fill="#595f74"/>
      <path id="パス_309" data-name="パス 309" d="M343.77,258.67h0a65.714,65.714,0,0,1-65.714,65.714h16.3a65.714,65.714,0,0,0,65.714-65.714h-16.3Z" transform="translate(-172.568 -148.015)" fill="#4a4f60"/>
    </g>
    <g id="g10" transform="translate(96.806 1369.03) rotate(-30)">
      <g id="g12" transform="translate(0 0)">
        <g id="g14" clip-path="url(#clip-path)">
          <g id="g20" transform="translate(21.278 3.04)">
            <path id="path22" d="M23.267,2.685a4.56,4.56,0,1,0-9.119,0V31.562a3.04,3.04,0,1,1-6.08,0V2.685a4.56,4.56,0,1,0-9.119,0V31.562a3.041,3.041,0,0,1-3.04,3.04,3.041,3.041,0,0,1-3.04-3.04V2.685a4.557,4.557,0,0,0-4.56-4.56,4.557,4.557,0,0,0-4.56,4.56V30.043a4.512,4.512,0,0,0,.155,1.116,13.36,13.36,0,0,0-.155,1.924c0,7.04,5.32,18.108,12.159,19.582V99.957a7.6,7.6,0,0,0,15.2,0V52.665c6.839-1.474,12.159-12.542,12.159-19.582a13.359,13.359,0,0,0-.155-1.924,4.511,4.511,0,0,0,.155-1.116Z" transform="translate(16.25 1.875)" fill="#99aab5"/>
          </g>
          <g id="g24" transform="translate(69.915 3.04)">
            <path id="path26" d="M9.844,0a7.9,7.9,0,0,0-.93.094A3.785,3.785,0,0,0,8.324,0c-6.715,0-15.2,16.649-15.2,33.437,0,14.159,3.876,26.023,9.119,29.4v38.994a7.6,7.6,0,0,0,15.2,0V7.6A7.6,7.6,0,0,0,9.844,0" transform="translate(6.875)" fill="#99aab5"/>
          </g>
        </g>
      </g>
    </g>
    <g id="Layer_25" data-name="Layer 25" transform="matrix(0.259, -0.966, 0.966, 0.259, 316.088, 1155.355)">
      <path id="パス_288" data-name="パス 288" d="M71.32,5.277a5.283,5.283,0,0,0-2.351-1.36,5.287,5.287,0,1,0-9.677,4.02L40.8,26.43a1.376,1.376,0,0,0,0,1.946l3.716,3.716a1.376,1.376,0,0,0,1.946,0L64.948,13.6a5.289,5.289,0,0,0,2.647.714h.019a5.23,5.23,0,0,0,3.727-1.542,5.3,5.3,0,0,0-.021-7.492Z" transform="translate(15.181 0.01)" fill="#fddead"/>
      <path id="パス_289" data-name="パス 289" d="M62.639,24.274,56.961,18.6a1.376,1.376,0,0,0-1.438-.323L33.187,26.286a25.2,25.2,0,0,1-7.555,1.458,26.759,26.759,0,0,0-.3,53.455c.493.028.983.041,1.473.041A26.673,26.673,0,0,0,53.49,55.607a25.265,25.265,0,0,1,1.458-7.563l8.013-22.332A1.376,1.376,0,0,0,62.639,24.274Z" transform="translate(-0.018 6.861)" fill="#aa7b50"/>
      <path id="パス_290" data-name="パス 290" d="M55.744,24.274,50.066,18.6a1.376,1.376,0,0,0-1.438-.323l-1.119.4,5.6,5.6a1.376,1.376,0,0,1,.322,1.438L45.416,48.044a25.265,25.265,0,0,0-1.458,7.563A26.611,26.611,0,0,1,18.337,81.188c.036,0,.07.01.1.011.493.028.983.041,1.473.041A26.673,26.673,0,0,0,46.6,55.607a25.265,25.265,0,0,1,1.458-7.563l8.013-22.332A1.376,1.376,0,0,0,55.744,24.274Z" transform="translate(6.877 6.861)" fill="#bb9573"/>
      <path id="パス_291" data-name="パス 291" d="M18.376,59.505A1.376,1.376,0,0,1,17,58.129V55.376a1.376,1.376,0,1,1,2.753,0v2.753A1.376,1.376,0,0,1,18.376,59.505Zm5.505,0a1.376,1.376,0,0,1-1.376-1.376V55.376a1.376,1.376,0,1,1,2.753,0v2.753A1.376,1.376,0,0,1,23.882,59.505Zm5.505,0a1.376,1.376,0,0,1-1.376-1.376V55.376a1.376,1.376,0,1,1,2.753,0v2.753A1.376,1.376,0,0,1,29.387,59.505Z" transform="translate(6.374 20.337)" fill="#926945"/>
    </g>
  </g>
</svg>
