<svg xmlns="http://www.w3.org/2000/svg" width="22" height="16.5" viewBox="0 0 22 16.5">
  <path id="Icon_awesome-hand-point-right" data-name="Icon awesome-hand-point-right" d="M22,8.579a1.938,1.938,0,0,1-1.925,1.883h-4.29a2.114,2.114,0,0,1-.271,3.048,1.968,1.968,0,0,1-.707,2.678c.386,2.112-.943,3.062-3.12,3.062-.118,0-.57-.009-.687-.008-2.663.007-3.3-1.335-5.317-1.646a1.03,1.03,0,0,1-.871-1.019V9.207h0A2.062,2.062,0,0,1,6.036,7.323c1.241-.558,4.1-2.107,4.621-3.322a1.831,1.831,0,0,1,1.719-1.25,2.064,2.064,0,0,1,1.9,2.875A5.84,5.84,0,0,1,13.663,6.7h6.412A1.969,1.969,0,0,1,22,8.579ZM4.125,8.594v8.25a1.031,1.031,0,0,1-1.031,1.031H1.031A1.031,1.031,0,0,1,0,16.844V8.594A1.031,1.031,0,0,1,1.031,7.563H3.094A1.031,1.031,0,0,1,4.125,8.594Zm-1.2,7.219a.859.859,0,1,0-.859.859A.859.859,0,0,0,2.922,15.813Z" transform="translate(0 -2.75)" fill="#fdfdfd"/>
</svg>
