<svg id="コンポーネント_84_5" data-name="コンポーネント 84 – 5" xmlns="http://www.w3.org/2000/svg" width="312.519" height="229.75" viewBox="0 0 312.519 229.75">
  <g id="tanu">
    <path id="パス_54" data-name="パス 54" d="M23.392,124.111C-30.373,206.4,54.433,241.7,128.9,243.75c76.72,2.116,179.009-30.384,119.156-120.956l.057.023c12.309-4.937,17.471-16.932,15.268-29.625-6.662-34.277-53.249-46.131-67.7-11.014a1.242,1.242,0,0,0,.285.551C156.126,66.59,106.71,67.7,68.422,85.956c-4.269-22.465-33.389-32.1-51.16-18.451C-5.01,81.869-8.481,120.708,23.3,124.168Z" transform="translate(0 -37.812)" fill="#c69c6d"/>
    <path id="パス_55" data-name="パス 55" d="M196,136.65a107.481,107.481,0,0,1,74.225,29.5c11.478,10.767,19.408,23.73,22.279,39.431,1.139,6.187,1.561,12.439.2,18.656-1.212,5.519-4.394,7.3-9.787,5.538A33.808,33.808,0,0,1,278.739,228a62.807,62.807,0,0,1-7.976-4.748c-7.251-4.937-14.322-10.156-21.748-14.812-13.608-8.542-27.642-16.229-43.769-19.078-14.129-2.491-27.65-.281-40.833,4.987-13.464,5.378-25.47,13.3-37.392,21.432-6,4.087-11.835,8.432-18.253,11.876a23.593,23.593,0,0,1-6.863,2.659c-3.418.615-5.762-.63-7.1-3.866a22.787,22.787,0,0,1-1.439-8.356c-.38-19.849,7.216-36.442,20.927-50.389,13.392-13.616,29.83-21.9,48.125-26.757C172.321,138.3,182.4,137.037,196,136.65Z" transform="translate(-57.898 -84.749)" fill="#998675"/>
    <path id="パス_56" data-name="パス 56" d="M328.274,259.82c3.961.141,8.056.5,11.679,2.34,8.846,4.485,7.471,10.6-1.318,15.131-7.725,3.984-14.645,3.464-21.649-1.139-7.368-4.843-9.309-10.737-.194-14.584C320.253,260.113,323.978,259.888,328.274,259.82Z" transform="translate(-192.684 -161.139)" fill="#1a1a1a"/>
    <path id="パス_57" data-name="パス 57" d="M200.721,232.346a18.9,18.9,0,0,1-8.91.429c-7.349-1.6-9.366-7.942-4.3-13.475,4.455-4.865,12.913-7.091,18.99-4.991,6.4,2.21,7.216,8.736,1.762,13.813A19.847,19.847,0,0,1,200.721,232.346Z" transform="translate(-114.555 -132.422)" fill="#1a1a1a"/>
    <path id="パス_58" data-name="パス 58" d="M454.341,231.627a18.545,18.545,0,0,1-7.216-5.127c-4.766-5.765-2.45-12.009,4.907-13.267,6.457-1.105,14.455,2.336,17.923,7.721,3.646,5.667.285,11.333-7.1,11.979A20.593,20.593,0,0,1,454.341,231.627Z" transform="translate(-275.76 -132.118)" fill="#1a1a1a"/>
    <path id="パス_59" data-name="パス 59" d="M279.484,53.57c-28.238-4.558-49.526-6.969-55.831-6.381a1.018,1.018,0,0,1-1-1.474C226.513,38,243.984,5.962,268.611.876c19.628-4.053,38.5,7,49.374,11.337,1.948.779,6.286.972,8.606,1.018a.76.76,0,0,1,.6,1.246c-1.823,2.408-5.781,7.642-6.859,9.134C313.488,33.107,299.075,56.73,279.484,53.57Z" transform="translate(-138.019 0.002)" fill="#8cc63f"/>
    <path id="パス_74" data-name="パス 74" d="M33.5,42.141s19.122,12.9,36.067,0" transform="translate(81.536 109.435)" fill="none" stroke="#1a1a1a" stroke-linecap="round" stroke-width="2"/>
  </g>
  <g id="コンポーネント_75_6" data-name="コンポーネント 75 – 6" transform="translate(208.832 161.715)">
    <path id="Icon_awesome-heart" data-name="Icon awesome-heart" d="M68.123,6.275C60.048-.817,48.039.459,40.627,8.341l-2.9,3.083-2.9-3.083C27.424.459,15.4-.817,7.325,6.275A22.265,22.265,0,0,0,5.866,37.847L34.379,68.188a4.525,4.525,0,0,0,6.675,0L69.567,37.847A22.251,22.251,0,0,0,68.123,6.275Z" transform="translate(0.001 -1.623)" fill="#f82e2e"/>
  </g>
  <g id="コンポーネント_75_7" data-name="コンポーネント 75 – 7" transform="translate(263.005 111.599)">
    <path id="Icon_awesome-heart-2" data-name="Icon awesome-heart" d="M44.708,4.676C39.408.022,31.527.859,26.662,6.032L24.757,8.055,22.852,6.032C18,.859,10.106.022,4.807,4.676A14.612,14.612,0,0,0,3.849,25.4L22.562,45.309a2.97,2.97,0,0,0,4.381,0L45.655,25.4A14.6,14.6,0,0,0,44.708,4.676Z" transform="translate(0.001 -1.623)" fill="#f82e2e"/>
  </g>
</svg>
