<?xml version="1.0" encoding="utf-8"?>
<!-- Generator: Adobe Illustrator 25.0.1, SVG Export Plug-In . SVG Version: 6.00 Build 0)  -->
<svg version="1.1" id="コンポーネント_85_3" xmlns="http://www.w3.org/2000/svg" xmlns:xlink="http://www.w3.org/1999/xlink"
	 x="0px" y="0px" viewBox="0 0 77.5 60" style="enable-background:new 0 0 77.5 60;" xml:space="preserve">
<style type="text/css">
	.st0{fill:#C69C6D;}
	.st1{fill:#998675;}
	.st2{fill:#1A1A1A;}
	.st3{fill:#8CC63F;}
</style>
<g id="tanu">
	<path id="パス_54" class="st0" d="M6.8,25.1c-15.7,24,9,34.2,30.7,34.8c22.3,0.6,52.1-8.8,34.7-35.2l0,0c3.6-1.4,5.1-4.9,4.4-8.6
		C74.8,6.1,61.2,2.7,57,12.9c0,0.1,0,0.1,0.1,0.2c-11.6-4.7-26-4.4-37.1,0.9C18.7,7.5,10.2,4.7,5,8.6C-1.5,12.8-2.5,24.1,6.8,25.1
		L6.8,25.1z"/>
	<path id="パス_55" class="st1" d="M40.2,15.1c8,0,15.8,3.1,21.6,8.6c3.4,3,5.6,7,6.5,11.5c0.4,1.8,0.4,3.6,0.1,5.4
		c-0.4,1.6-1.3,2.1-2.9,1.6c-0.4-0.1-0.8-0.3-1.2-0.5c-0.8-0.4-1.6-0.9-2.3-1.4c-2.1-1.4-4.2-3-6.3-4.3c-4-2.5-8.1-4.7-12.7-5.6
		c-4-0.7-8.1-0.2-11.9,1.5c-3.8,1.7-7.5,3.8-10.9,6.2c-1.7,1.2-3.5,2.4-5.3,3.5c-0.6,0.4-1.3,0.6-2,0.8c-0.9,0.2-1.8-0.3-2.1-1.1
		c-0.3-0.8-0.4-1.6-0.4-2.4c-0.1-5.5,2.1-10.9,6.1-14.7c3.9-3.8,8.7-6.5,14-7.8C33.6,15.6,36.9,15.1,40.2,15.1z"/>
	<path id="パス_56" class="st2" d="M39.5,28.7c1.2,0,2.3,0.2,3.4,0.7c2.6,1.3,2.2,3.1-0.4,4.4c-2,1.1-4.5,1-6.3-0.3
		c-2.1-1.4-2.7-3.1-0.1-4.2C37.2,28.9,38.4,28.7,39.5,28.7z"/>
	<path id="パス_57" class="st2" d="M25.1,29.1c-0.8,0.2-1.7,0.3-2.6,0.1c-2.1-0.5-2.7-2.3-1.3-3.9c1.4-1.5,3.6-2,5.5-1.5
		c1.9,0.6,2.1,2.5,0.5,4C26.7,28.4,25.9,28.9,25.1,29.1z"/>
	<path id="パス_58" class="st2" d="M52,29c-0.8-0.3-1.5-0.8-2.1-1.5c-1.4-1.7-0.7-3.5,1.4-3.9c2-0.3,4,0.6,5.2,2.2
		c1.1,1.6,0.1,3.3-2.1,3.5C53.6,29.4,52.8,29.3,52,29z"/>
	<path id="パス_59" class="st3" d="M41.2,15.6c-8.2-1.3-14.4-2-16.3-1.9c-0.2,0-0.3-0.1-0.3-0.3c0-0.1,0-0.1,0-0.2
		C25.8,11.1,30.9,1.7,38,0.3c5.7-1.2,11.2,2,14.4,3.3c0.8,0.2,1.7,0.3,2.5,0.3c0.1,0,0.2,0.1,0.2,0.2c0,0.1,0,0.1-0.1,0.1
		c-0.5,0.7-1.7,2.2-2,2.7C51.1,9.6,46.9,16.5,41.2,15.6z"/>
</g>
</svg>
