<svg xmlns="http://www.w3.org/2000/svg" width="200.028" height="199.036" viewBox="0 0 200.028 199.036">
  <g id="veg-food" transform="matrix(0.966, 0.259, -0.259, 0.966, 38.403, -30.091)">
    <path id="パス_292" data-name="パス 292" d="M166.556,135.841c-.352-4.927,2.681-7.465.753-12.258-2.2-5.469-7.908-5.962-8.119-10-.191-3.67,4.477-4.193,6.2-8.957,2.72-7.536-6.289-13.632-3.6-18.043,2.264-3.712,12.087-4.094,17.575-.047,4.974,3.668,3.594,8.906,9.281,12.1,4.219,2.368,6.6.394,9.136,2.8,3.767,3.565-.66,8.66,2.434,15.038,2.969,6.119,8.655,4.748,12.255,11.266,3.555,6.437.916,13.593.508,14.662-3.16,8.268-11.879,12.786-19.443,13.388C179.717,156.888,167.218,145.127,166.556,135.841Z" transform="translate(-96.749 -36.381)" fill="#a2e379"/>
    <path id="パス_293" data-name="パス 293" d="M226.216,127.739c-3.6-6.518-9.286-5.146-12.255-11.266-3.094-6.378,1.333-11.473-2.434-15.038-2.541-2.4-4.917-.43-9.136-2.8-5.687-3.192-4.306-8.43-9.281-12.1a17.4,17.4,0,0,0-12.372-2.681,15.672,15.672,0,0,1,6.94,2.681c4.974,3.668,3.594,8.906,9.281,12.1,4.219,2.368,6.6.394,9.136,2.8,3.767,3.565-.66,8.66,2.434,15.038,2.969,6.119,8.655,4.748,12.255,11.266,3.555,6.437.916,13.593.508,14.662-3.033,7.936-11.188,12.415-18.527,13.294a23.162,23.162,0,0,0,4.517.094c7.564-.6,16.283-5.121,19.443-13.388C227.133,141.332,229.771,134.176,226.216,127.739Z" transform="translate(-110.496 -36.384)" fill="#3ea566"/>
    <path id="パス_294" data-name="パス 294" d="M43.145,98.026c-.427-6.738,3.573-10.231,1.074-16.773-2.851-7.465-10.344-8.1-10.592-13.622-.226-5.02,5.908-5.767,8.2-12.3,3.624-10.327-8.163-18.6-4.6-24.657,3-5.094,15.9-5.684,23.079-.186,6.507,4.983,4.657,12.158,12.1,16.485,5.523,3.21,8.658.493,11.978,3.764,4.922,4.85-.927,11.851,3.092,20.554,3.856,8.35,11.333,6.435,16.015,15.325,4.623,8.78,1.109,18.587.565,20.053C99.851,118,88.37,124.245,78.433,125.122,60.282,126.724,43.95,110.723,43.145,98.026Z" transform="translate(-16.661)" fill="#a2e379"/>
    <path id="パス_295" data-name="パス 295" d="M123.574,86.626c-4.682-8.891-12.159-6.975-16.015-15.325-4.019-8.7,1.83-15.7-3.092-20.554-3.32-3.271-6.454-.554-11.978-3.764-7.446-4.327-5.6-11.5-12.1-16.485C76.2,27.3,70.082,26.162,65.1,26.778a20.23,20.23,0,0,1,9.85,3.72c6.507,4.983,4.657,12.158,12.1,16.485,5.523,3.21,8.658.493,11.978,3.764,4.922,4.85-.927,11.851,3.092,20.554,3.856,8.35,11.333,6.435,16.015,15.325,4.623,8.78,1.109,18.587.565,20.053-4.183,11.266-15.557,17.5-25.455,18.431a29.121,29.121,0,0,0,5.262.018c9.937-.877,21.418-7.118,25.626-18.449C124.683,105.214,128.2,95.406,123.574,86.626Z" transform="translate(-36.741 -0.006)" fill="#3ea566"/>
    <path id="パス_296" data-name="パス 296" d="M110.99,182.318a1.66,1.66,0,0,1-1.4-1.111A261,261,0,0,1,98.2,152.452a297.681,297.681,0,0,1-8.841-33.261c-.294-1.428.208-2.958,1.121-3.418s1.891.326,2.185,1.754a290.243,290.243,0,0,0,8.621,32.431A254.468,254.468,0,0,0,112.39,178a4.04,4.04,0,0,1,.148,2.833c-.3.913-.894,1.488-1.548,1.489Z" transform="translate(-45.707 -56.788)" fill="#3ea566"/>
    <path id="パス_297" data-name="パス 297" d="M112.108,156.707a1.651,1.651,0,0,1-1.388-1.084,4,4,0,0,1-.282-2.386l2.11-11.446c.266-1.441,1.228-2.273,2.15-1.857s1.453,1.921,1.188,3.363l-2.11,11.446C113.562,155.905,112.882,156.706,112.108,156.707Zm5.937,18.725a1.628,1.628,0,0,1-1.365-1.035,3.961,3.961,0,0,1-.325-2.317l2.3-14.961c.224-1.459,1.162-2.356,2.095-2.006s1.507,1.818,1.282,3.276l-2.3,14.961C119.545,174.571,118.848,175.431,118.045,175.433Z" transform="translate(-61.918 -72.214)" fill="#3ea566"/>
    <path id="パス_298" data-name="パス 298" d="M95.793,187.043a1.2,1.2,0,0,1-.608-.173l-7.277-4.255c-.9-.525-1.354-2.09-1.018-3.5s1.336-2.118,2.235-1.593l7.277,4.255a3.16,3.16,0,0,1,1.1,3.028C97.353,186.1,96.633,187.043,95.793,187.043Zm5.272,15.983a1.2,1.2,0,0,1-.608-.173l-8.331-4.871c-.9-.525-1.354-2.09-1.018-3.5s1.336-2.118,2.235-1.593l8.331,4.871a3.161,3.161,0,0,1,1.1,3.028c-.149,1.293-.869,2.233-1.709,2.233Z" transform="translate(-43.79 -96.15)" fill="#3ea566"/>
    <path id="パス_299" data-name="パス 299" d="M355.231,133.665c-.614-6.723-5.1-9.559-3.642-16.409,1.668-7.815,8.975-9.595,8.371-15.089-.549-4.995-6.725-4.789-9.993-10.888-5.169-9.647,5.2-19.637.753-25.071-3.746-4.572-16.586-3.17-22.833,3.366-5.663,5.925-2.732,12.729-9.423,18.151-4.964,4.022-8.479,1.818-11.256,5.561-4.117,5.549,2.739,11.567.106,20.785-2.526,8.844-10.209,8.1-13.467,17.606-3.218,9.387,1.763,18.537,2.526,19.9,5.9,10.549,18.2,14.95,28.158,14.288C342.712,164.658,356.388,146.335,355.231,133.665Z" transform="translate(-181.956 -23.553)" fill="#a2e379"/>
    <path id="パス_300" data-name="パス 300" d="M399.207,117.258c1.668-7.815,8.975-9.595,8.371-15.089-.549-4.995-6.725-4.789-9.993-10.888-5.169-9.647,5.2-19.637.753-25.071-1.879-2.294-6.047-3.083-10.523-2.476A8.091,8.091,0,0,1,392.9,66.21c4.452,5.433-5.922,15.424-.753,25.071,3.268,6.1,9.444,5.893,9.993,10.888.6,5.495-6.7,7.274-8.371,15.089-1.462,6.849,3.027,9.686,3.642,16.409,1.142,12.5-12.162,30.51-29.986,32.144a30.771,30.771,0,0,0,4.718.058c18.182-1.209,31.857-19.532,30.7-32.2C402.234,126.943,397.744,124.107,399.207,117.258Z" transform="translate(-229.573 -23.554)" fill="#3ea566"/>
    <path id="パス_301" data-name="パス 301" d="M348.205,226.634c-.562,0-1.083-.489-1.378-1.289a4.359,4.359,0,0,1-.071-2.642,342.965,342.965,0,0,0,9.4-40.558q2.007-11.853,3.261-24.01c.152-1.478.991-2.47,1.874-2.215s1.474,1.66,1.322,3.139q-1.281,12.424-3.337,24.571a350.96,350.96,0,0,1-9.617,41.5C349.382,226.053,348.82,226.635,348.205,226.634Z" transform="translate(-210.092 -82.453)" fill="#3ea566"/>
    <path id="パス_302" data-name="パス 302" d="M381.279,197.752c-.658,0-1.25-.665-1.5-1.683L376.323,182a3.561,3.561,0,0,1,.882-3.546c.828-.571,1.776.091,2.117,1.478L382.778,194a4.339,4.339,0,0,1-.152,2.545c-.3.753-.806,1.205-1.346,1.206Z" transform="translate(-233.304 -96.721)" fill="#3ea566"/>
    <path id="パス_303" data-name="パス 303" d="M376.5,224.911c-.738,0-1.383-.832-1.57-2.028a3.645,3.645,0,0,1,.774-3.057l5.978-5.628c.781-.735,1.769-.271,2.208,1.037a3.841,3.841,0,0,1-.619,3.7l-5.978,5.628a1.158,1.158,0,0,1-.793.349Zm-3.809,18.7c-.738,0-1.383-.832-1.57-2.027a3.646,3.646,0,0,1,.774-3.057l6.376-6c.781-.735,1.769-.271,2.208,1.037a3.841,3.841,0,0,1-.619,3.7l-6.376,6a1.157,1.157,0,0,1-.793.349Z" transform="translate(-229.282 -119.427)" fill="#3ea566"/>
    <circle id="楕円形_1" data-name="楕円形 1" cx="16.106" cy="16.106" r="16.106" transform="translate(102.751 93.021)" fill="#f66"/>
    <path id="パス_304" data-name="パス 304" d="M305.4,209.981a16.074,16.074,0,0,0-5.433.942,16.109,16.109,0,0,1,0,30.329,16.107,16.107,0,1,0,5.433-31.271Z" transform="translate(-186.546 -116.96)" fill="#ff4e4e"/>
    <circle id="楕円形_2" data-name="楕円形 2" cx="16.106" cy="16.106" r="16.106" transform="translate(75.589 93.021)" fill="#f66"/>
    <path id="パス_305" data-name="パス 305" d="M230.4,209.981a16.073,16.073,0,0,0-5.433.942,16.109,16.109,0,0,1,0,30.329,16.107,16.107,0,1,0,5.433-31.271Z" transform="translate(-138.709 -116.96)" fill="#ff4e4e"/>
    <path id="パス_306" data-name="パス 306" d="M138.553,418.165h85.072V433.3a16.134,16.134,0,0,1-16.134,16.134h-52.8A16.134,16.134,0,0,1,138.553,433.3Z" transform="translate(-83.589 -249.746)" fill="#676e87"/>
    <path id="パス_307" data-name="パス 307" d="M300.033,418.165V433.3A16.134,16.134,0,0,1,283.9,449.433h16.3A16.134,16.134,0,0,0,316.331,433.3V418.165Z" transform="translate(-176.294 -249.746)" fill="#595f74"/>
    <path id="パス_308" data-name="パス 308" d="M148.657,258.67H187.5a65.71,65.71,0,0,1-65.716,65.713H73.213A65.713,65.713,0,0,1,7.5,258.671Z" transform="translate(0 -148.015)" fill="#595f74"/>
    <path id="パス_309" data-name="パス 309" d="M343.77,258.67h0a65.714,65.714,0,0,1-65.714,65.714h16.3a65.714,65.714,0,0,0,65.714-65.714h-16.3Z" transform="translate(-172.568 -148.015)" fill="#4a4f60"/>
  </g>
</svg>
