<svg xmlns="http://www.w3.org/2000/svg" viewBox="0 0 64 64"><polygon fill="#1e81ce" points="11 41 3 41 3 61 9 61 11 61 11 59 11 45 11 41"/><path fill="#ffdaaa" d="M58.5,35.25a3,3,0,0,0-4.24,0L44,45.52V46h0V42a2.006,2.006,0,0,0-2-2H16l-5,5V59l5-5H44L59.92,38.08a1.008,1.008,0,0,0,0-1.42Z"/><polygon fill="#ffdaaa" points="12 44 12 58 11 59 11 45 12 44"/><path fill="#ff6243" d="M13 22s5-3 5-6a2.988 2.988 0 0 0-5-2.221A2.988 2.988 0 0 0 8 16C8 19 13 22 13 22zM50 26s5-3 5-6a2.988 2.988 0 0 0-5-2.221A2.988 2.988 0 0 0 45 20C45 23 50 26 50 26zM32 36s7-4 7-8a3.985 3.985 0 0 0-7-2.62A3.985 3.985 0 0 0 25 28C25 32 32 36 32 36z"/><rect width="2" height="4" x="7" y="6" fill="#ff7956"/><rect width="2" height="2" x="7" y="2" fill="#ff7956"/><rect width="2" height="2" x="12" y="6" fill="#ff7956"/><rect width="2" height="2" x="54" y="11" fill="#ff7956"/><rect width="2" height="2" x="54" y="7" fill="#ff7956"/><rect width="2" height="4" x="49" y="10" fill="#ff7956"/><rect width="2" height="2" x="44" y="11" fill="#ff7956"/><rect width="2" height="2" x="44" y="7" fill="#ff7956"/><rect width="2" height="2" x="25" y="19" fill="#ff7956"/><rect width="2" height="2" x="31" y="20" fill="#ff7956"/><rect width="2" height="2" x="37" y="19" fill="#ff7956"/><rect width="2" height="4" x="25" y="13" fill="#ff7956"/><rect width="2" height="6" x="31" y="10" fill="#ff7956"/><rect width="2" height="4" x="37" y="13" fill="#ff7956"/><rect width="2" height="2" x="37" y="9" fill="#ff7956"/><rect width="2" height="2" x="17" y="8" fill="#ff7956"/><rect width="2" height="2" x="12" y="2" fill="#ff7956"/><rect width="14" height="1" x="30" y="45" fill="#f1cfa2"/><polygon fill="#ffc477" points="12 58 12 44 11 45 11 59 12 58"/></svg>